<?xml version="1.0" standalone="no"?>
<!DOCTYPE svg PUBLIC "-//W3C//DTD SVG 20010904//EN"
 "http://www.w3.org/TR/2001/REC-SVG-20010904/DTD/svg10.dtd">
<svg version="1.0" xmlns="http://www.w3.org/2000/svg"
 width="300.000000pt" height="300.000000pt" viewBox="0 0 300.000000 300.000000"
 preserveAspectRatio="xMidYMid meet">
<metadata>
Created by potrace 1.10, written by Peter Selinger 2001-2011
</metadata>
<g transform="translate(0.000000,300.000000) scale(0.100000,-0.100000)"
fill="#58a5a5" stroke="none">
<path d="M155 2498 c-28 -16 -35 -28 -35 -65 0 -30 27 -54 432 -390 923 -766
920 -763 947 -763 19 0 72 38 192 138 201 167 631 522 949 784 163 135 236
201 238 217 6 38 -6 67 -33 79 -37 17 -2661 17 -2690 0z m2675 -44 c6 -6 8
-18 4 -27 -5 -13 -730 -623 -888 -747 -18 -14 -120 -98 -228 -187 -134 -111
-204 -163 -221 -163 -16 0 -124 84 -358 278 -184 152 -477 395 -650 539 -276
229 -329 277 -329 299 0 3 10 9 23 14 33 13 2633 8 2647 -6z"/>
<path d="M142 1704 c-25 -17 -30 -70 -9 -96 13 -17 1285 -1072 1327 -1101 13
-9 32 -17 42 -17 9 0 98 66 196 148 672 552 1150 947 1165 964 25 29 22 83 -5
102 -47 33 -64 24 -298 -170 -124 -103 -396 -329 -605 -502 -209 -173 -396
-330 -416 -349 l-35 -34 -185 154 c-884 738 -1104 917 -1129 917 -14 0 -36 -7
-48 -16z m698 -554 c341 -283 632 -519 646 -524 20 -6 33 -3 57 15 28 21 226
184 1019 843 120 99 227 184 237 188 29 10 48 -16 30 -41 -8 -11 -111 -99
-229 -197 -118 -97 -235 -194 -260 -215 -25 -20 -191 -158 -370 -305 -179
-147 -327 -271 -330 -274 -3 -3 -33 -28 -67 -54 -47 -37 -68 -47 -85 -42 -25
6 -1294 1054 -1317 1087 -18 25 1 51 29 41 11 -4 299 -239 640 -522z"/>
</g>
</svg>
